# Blender v2.79 (sub 0) OBJ File: 'Ring.blend'
# www.blender.org
mtllib Ring.mtl
o Torus
v 1.250000 0.000000 0.000000
v 1.155872 0.195458 0.000000
v 0.944370 0.243732 0.000000
v 0.774758 0.108471 0.000000
v 0.774758 -0.108471 0.000000
v 0.944370 -0.243732 0.000000
v 1.155872 -0.195458 0.000000
v 1.141932 0.000000 -0.508421
v 1.055942 0.195458 -0.470136
v 0.862725 0.243732 -0.384110
v 0.707776 0.108471 -0.315122
v 0.707776 -0.108471 -0.315122
v 0.862725 -0.243732 -0.384110
v 1.055942 -0.195458 -0.470136
v 0.836413 0.000000 -0.928931
v 0.773430 0.195458 -0.858981
v 0.631907 0.243732 -0.701804
v 0.518414 0.108471 -0.575757
v 0.518414 -0.108471 -0.575757
v 0.631907 -0.243732 -0.701804
v 0.773430 -0.195458 -0.858981
v 0.386271 0.000000 -1.188821
v 0.357184 0.195458 -1.099300
v 0.291826 0.243732 -0.898149
v 0.239413 0.108471 -0.736838
v 0.239413 -0.108471 -0.736838
v 0.291826 -0.243732 -0.898149
v 0.357184 -0.195458 -1.099300
v -0.130661 0.000000 -1.243152
v -0.120822 0.195458 -1.149540
v -0.098714 0.243732 -0.939196
v -0.080984 0.108471 -0.770514
v -0.080984 -0.108471 -0.770514
v -0.098714 -0.243732 -0.939196
v -0.120822 -0.195458 -1.149540
v -0.625000 0.000000 -1.082532
v -0.577936 0.195458 -1.001015
v -0.472185 0.243732 -0.817848
v -0.387379 0.108471 -0.670960
v -0.387379 -0.108471 -0.670960
v -0.472185 -0.243732 -0.817848
v -0.577936 -0.195458 -1.001015
v -1.011271 0.000000 -0.734731
v -0.935121 0.195458 -0.679404
v -0.764011 0.243732 -0.555086
v -0.626792 0.108471 -0.455391
v -0.626792 -0.108471 -0.455391
v -0.764011 -0.243732 -0.555086
v -0.935121 -0.195458 -0.679404
v -1.222685 0.000000 -0.259890
v -1.130614 0.195458 -0.240320
v -0.923733 0.243732 -0.196346
v -0.757827 0.108471 -0.161081
v -0.757827 -0.108471 -0.161081
v -0.923733 -0.243732 -0.196346
v -1.130614 -0.195458 -0.240320
v -1.222685 0.000000 0.259890
v -1.130614 0.195458 0.240320
v -0.923733 0.243732 0.196346
v -0.757827 0.108471 0.161081
v -0.757827 -0.108471 0.161081
v -0.923733 -0.243732 0.196346
v -1.130614 -0.195458 0.240320
v -1.011271 0.000000 0.734731
v -0.935121 0.195458 0.679404
v -0.764011 0.243732 0.555086
v -0.626792 0.108471 0.455391
v -0.626792 -0.108471 0.455391
v -0.764011 -0.243732 0.555086
v -0.935121 -0.195458 0.679404
v -0.625000 0.000000 1.082532
v -0.577936 0.195458 1.001015
v -0.472185 0.243732 0.817848
v -0.387379 0.108471 0.670960
v -0.387379 -0.108471 0.670960
v -0.472185 -0.243732 0.817848
v -0.577936 -0.195458 1.001015
v -0.130661 0.000000 1.243152
v -0.120822 0.195458 1.149540
v -0.098714 0.243732 0.939196
v -0.080984 0.108471 0.770514
v -0.080984 -0.108471 0.770514
v -0.098714 -0.243732 0.939196
v -0.120822 -0.195458 1.149540
v 0.386271 0.000000 1.188821
v 0.357184 0.195458 1.099300
v 0.291826 0.243732 0.898149
v 0.239413 0.108471 0.736838
v 0.239413 -0.108471 0.736838
v 0.291826 -0.243732 0.898149
v 0.357184 -0.195458 1.099300
v 0.836413 0.000000 0.928931
v 0.773429 0.195458 0.858981
v 0.631907 0.243732 0.701804
v 0.518414 0.108471 0.575757
v 0.518414 -0.108471 0.575757
v 0.631907 -0.243732 0.701804
v 0.773429 -0.195458 0.858981
v 1.141932 0.000000 0.508421
v 1.055942 0.195458 0.470135
v 0.862725 0.243732 0.384110
v 0.707777 0.108471 0.315122
v 0.707777 -0.108471 0.315122
v 0.862725 -0.243732 0.384110
v 1.055942 -0.195458 0.470135
vn 0.8849 0.4261 -0.1881
vn 0.2223 0.9738 -0.0472
vn -0.6181 0.7751 0.1314
vn -0.9781 0.0000 0.2079
vn -0.6181 -0.7751 0.1314
vn 0.2223 -0.9738 -0.0472
vn 0.8849 -0.4261 -0.1881
vn 0.7319 0.4261 -0.5317
vn 0.1838 0.9738 -0.1336
vn -0.5112 0.7751 0.3714
vn -0.8090 0.0000 0.5878
vn -0.5112 -0.7751 0.3714
vn 0.1838 -0.9738 -0.1336
vn 0.7319 -0.4261 -0.5317
vn 0.4523 0.4261 -0.7835
vn 0.1136 0.9738 -0.1968
vn -0.3159 0.7751 0.5472
vn -0.5000 0.0000 0.8660
vn -0.3159 -0.7751 0.5472
vn 0.1136 -0.9738 -0.1968
vn 0.4523 -0.4261 -0.7835
vn 0.0946 0.4261 -0.8997
vn 0.0238 0.9738 -0.2260
vn -0.0661 0.7751 0.6284
vn -0.1045 0.0000 0.9945
vn -0.0661 -0.7751 0.6284
vn 0.0238 -0.9738 -0.2260
vn 0.0946 -0.4261 -0.8997
vn -0.2796 0.4261 -0.8604
vn -0.0702 0.9738 -0.2161
vn 0.1953 0.7751 0.6010
vn 0.3090 0.0000 0.9511
vn 0.1953 -0.7751 0.6010
vn -0.0702 -0.9738 -0.2161
vn -0.2796 -0.4261 -0.8604
vn -0.6053 0.4261 -0.6723
vn -0.1521 0.9738 -0.1689
vn 0.4228 0.7751 0.4696
vn 0.6691 0.0000 0.7431
vn 0.4228 -0.7751 0.4696
vn -0.1521 -0.9738 -0.1689
vn -0.6053 -0.4261 -0.6723
vn -0.8264 0.4261 -0.3680
vn -0.2076 0.9738 -0.0924
vn 0.5773 0.7751 0.2570
vn 0.9135 0.0000 0.4067
vn 0.5773 -0.7751 0.2570
vn -0.2076 -0.9738 -0.0924
vn -0.8264 -0.4261 -0.3680
vn -0.9047 0.4261 0.0000
vn -0.2272 0.9738 0.0000
vn 0.6319 0.7751 0.0000
vn 1.0000 0.0000 0.0000
vn 0.6319 -0.7751 0.0000
vn -0.2272 -0.9738 0.0000
vn -0.9047 -0.4261 0.0000
vn -0.8264 0.4261 0.3680
vn -0.2076 0.9738 0.0924
vn 0.5773 0.7751 -0.2570
vn 0.9135 0.0000 -0.4067
vn 0.5773 -0.7751 -0.2570
vn -0.2076 -0.9738 0.0924
vn -0.8264 -0.4261 0.3680
vn -0.6053 0.4261 0.6723
vn -0.1521 0.9738 0.1689
vn 0.4228 0.7751 -0.4696
vn 0.6691 0.0000 -0.7431
vn 0.4228 -0.7751 -0.4696
vn -0.1521 -0.9738 0.1689
vn -0.6053 -0.4261 0.6723
vn -0.2796 0.4261 0.8604
vn -0.0702 0.9738 0.2161
vn 0.1953 0.7751 -0.6010
vn 0.3090 0.0000 -0.9511
vn 0.1953 -0.7751 -0.6010
vn -0.0702 -0.9738 0.2161
vn -0.2796 -0.4261 0.8604
vn 0.0946 0.4261 0.8997
vn 0.0238 0.9738 0.2260
vn -0.0661 0.7751 -0.6284
vn -0.1045 0.0000 -0.9945
vn -0.0661 -0.7751 -0.6284
vn 0.0238 -0.9738 0.2260
vn 0.0946 -0.4261 0.8997
vn 0.4523 0.4261 0.7835
vn 0.1136 0.9738 0.1968
vn -0.3159 0.7751 -0.5472
vn -0.5000 0.0000 -0.8660
vn -0.3159 -0.7751 -0.5472
vn 0.1136 -0.9738 0.1968
vn 0.4523 -0.4261 0.7835
vn 0.7319 0.4261 0.5317
vn 0.1838 0.9738 0.1336
vn -0.5112 0.7751 -0.3714
vn -0.8090 0.0000 -0.5878
vn -0.5112 -0.7751 -0.3714
vn 0.1838 -0.9738 0.1336
vn 0.7319 -0.4261 0.5317
vn 0.8849 0.4261 0.1881
vn 0.2223 0.9738 0.0472
vn -0.6181 0.7751 -0.1314
vn -0.9781 0.0000 -0.2079
vn -0.6181 -0.7751 -0.1314
vn 0.2223 -0.9738 0.0472
vn 0.8849 -0.4261 0.1881
usemtl None
s off
f 8//1 2//1 1//1
f 9//2 3//2 2//2
f 10//3 4//3 3//3
f 11//4 5//4 4//4
f 12//5 6//5 5//5
f 6//6 14//6 7//6
f 14//7 1//7 7//7
f 8//8 16//8 9//8
f 16//9 10//9 9//9
f 17//10 11//10 10//10
f 18//11 12//11 11//11
f 12//12 20//12 13//12
f 20//13 14//13 13//13
f 14//14 15//14 8//14
f 22//15 16//15 15//15
f 16//16 24//16 17//16
f 17//17 25//17 18//17
f 25//18 19//18 18//18
f 26//19 20//19 19//19
f 27//20 21//20 20//20
f 28//21 15//21 21//21
f 29//22 23//22 22//22
f 23//23 31//23 24//23
f 31//24 25//24 24//24
f 32//25 26//25 25//25
f 33//26 27//26 26//26
f 27//27 35//27 28//27
f 28//28 29//28 22//28
f 36//29 30//29 29//29
f 37//30 31//30 30//30
f 38//31 32//31 31//31
f 39//32 33//32 32//32
f 40//33 34//33 33//33
f 41//34 35//34 34//34
f 35//35 36//35 29//35
f 43//36 37//36 36//36
f 44//37 38//37 37//37
f 45//38 39//38 38//38
f 46//39 40//39 39//39
f 47//40 41//40 40//40
f 48//41 42//41 41//41
f 49//42 36//42 42//42
f 50//43 44//43 43//43
f 51//44 45//44 44//44
f 45//45 53//45 46//45
f 53//46 47//46 46//46
f 47//47 55//47 48//47
f 55//48 49//48 48//48
f 56//49 43//49 49//49
f 57//50 51//50 50//50
f 58//51 52//51 51//51
f 59//52 53//52 52//52
f 60//53 54//53 53//53
f 61//54 55//54 54//54
f 62//55 56//55 55//55
f 63//56 50//56 56//56
f 64//57 58//57 57//57
f 58//58 66//58 59//58
f 66//59 60//59 59//59
f 67//60 61//60 60//60
f 61//61 69//61 62//61
f 69//62 63//62 62//62
f 70//63 57//63 63//63
f 71//64 65//64 64//64
f 72//65 66//65 65//65
f 73//66 67//66 66//66
f 74//67 68//67 67//67
f 75//68 69//68 68//68
f 76//69 70//69 69//69
f 70//70 71//70 64//70
f 71//71 79//71 72//71
f 79//72 73//72 72//72
f 80//73 74//73 73//73
f 81//74 75//74 74//74
f 82//75 76//75 75//75
f 83//76 77//76 76//76
f 84//77 71//77 77//77
f 85//78 79//78 78//78
f 86//79 80//79 79//79
f 80//80 88//80 81//80
f 88//81 82//81 81//81
f 82//82 90//82 83//82
f 90//83 84//83 83//83
f 91//84 78//84 84//84
f 92//85 86//85 85//85
f 93//86 87//86 86//86
f 94//87 88//87 87//87
f 95//88 89//88 88//88
f 96//89 90//89 89//89
f 90//90 98//90 91//90
f 98//91 85//91 91//91
f 99//92 93//92 92//92
f 93//93 101//93 94//93
f 101//94 95//94 94//94
f 102//95 96//95 95//95
f 103//96 97//96 96//96
f 104//97 98//97 97//97
f 105//98 92//98 98//98
f 99//99 2//99 100//99
f 100//100 3//100 101//100
f 3//101 102//101 101//101
f 4//102 103//102 102//102
f 5//103 104//103 103//103
f 104//104 7//104 105//104
f 7//105 99//105 105//105
f 8//1 9//1 2//1
f 9//2 10//2 3//2
f 10//3 11//3 4//3
f 11//4 12//4 5//4
f 12//5 13//5 6//5
f 6//6 13//6 14//6
f 14//7 8//7 1//7
f 8//8 15//8 16//8
f 16//9 17//9 10//9
f 17//10 18//10 11//10
f 18//11 19//11 12//11
f 12//12 19//12 20//12
f 20//13 21//13 14//13
f 14//14 21//14 15//14
f 22//15 23//15 16//15
f 16//16 23//16 24//16
f 17//17 24//17 25//17
f 25//18 26//18 19//18
f 26//19 27//19 20//19
f 27//20 28//20 21//20
f 28//21 22//21 15//21
f 29//22 30//22 23//22
f 23//23 30//23 31//23
f 31//24 32//24 25//24
f 32//25 33//25 26//25
f 33//26 34//26 27//26
f 27//27 34//27 35//27
f 28//28 35//28 29//28
f 36//29 37//29 30//29
f 37//30 38//30 31//30
f 38//31 39//31 32//31
f 39//32 40//32 33//32
f 40//33 41//33 34//33
f 41//34 42//34 35//34
f 35//35 42//35 36//35
f 43//36 44//36 37//36
f 44//37 45//37 38//37
f 45//38 46//38 39//38
f 46//39 47//39 40//39
f 47//40 48//40 41//40
f 48//41 49//41 42//41
f 49//42 43//42 36//42
f 50//43 51//43 44//43
f 51//44 52//44 45//44
f 45//45 52//45 53//45
f 53//46 54//46 47//46
f 47//47 54//47 55//47
f 55//48 56//48 49//48
f 56//49 50//49 43//49
f 57//50 58//50 51//50
f 58//51 59//51 52//51
f 59//52 60//52 53//52
f 60//53 61//53 54//53
f 61//54 62//54 55//54
f 62//55 63//55 56//55
f 63//56 57//56 50//56
f 64//57 65//57 58//57
f 58//58 65//58 66//58
f 66//59 67//59 60//59
f 67//60 68//60 61//60
f 61//61 68//61 69//61
f 69//62 70//62 63//62
f 70//63 64//63 57//63
f 71//64 72//64 65//64
f 72//65 73//65 66//65
f 73//66 74//66 67//66
f 74//67 75//67 68//67
f 75//68 76//68 69//68
f 76//69 77//69 70//69
f 70//70 77//70 71//70
f 71//71 78//71 79//71
f 79//72 80//72 73//72
f 80//73 81//73 74//73
f 81//74 82//74 75//74
f 82//75 83//75 76//75
f 83//76 84//76 77//76
f 84//77 78//77 71//77
f 85//78 86//78 79//78
f 86//79 87//79 80//79
f 80//80 87//80 88//80
f 88//81 89//81 82//81
f 82//82 89//82 90//82
f 90//83 91//83 84//83
f 91//84 85//84 78//84
f 92//85 93//85 86//85
f 93//86 94//86 87//86
f 94//87 95//87 88//87
f 95//88 96//88 89//88
f 96//89 97//89 90//89
f 90//90 97//90 98//90
f 98//91 92//91 85//91
f 99//92 100//92 93//92
f 93//93 100//93 101//93
f 101//94 102//94 95//94
f 102//95 103//95 96//95
f 103//96 104//96 97//96
f 104//97 105//97 98//97
f 105//98 99//98 92//98
f 99//99 1//99 2//99
f 100//100 2//100 3//100
f 3//101 4//101 102//101
f 4//102 5//102 103//102
f 5//103 6//103 104//103
f 104//104 6//104 7//104
f 7//105 1//105 99//105
